#!OML:ASF I:\Actors\actors\Patient Classification 2\Patient 1\Session 1\actor1.ASF
:FULLY-SPECIFIED
:DEGREES
478
root -0.901224 18.7528 5.18545 2.44555 0.373215 -4.08975
lowerback 7.61869 1.65986 -6.50222
upperback 1.46292 1.53145 -4.79156
thorax -2.79545 0.798223 -1.47723
lowerneck -11.8253 2.19767 1.18923
upperneck 34.2517 2.84354 0.603759
head 13.5303 1.46357 0.447142
rclavicle -1.19271e-015 -1.27222e-014
rhumerus 50.1578 69.3096 -1.47127
rradius 108.117
rwrist -20.8056
rhand -0.502552 -53.2277
rfingers 7.12502
rthumb 25.1089 -81.5967
lclavicle -1.19271e-015 -1.27222e-014
lhumerus 8.96269 -41.0473 53.5468
lradius 80.8119
lwrist 39.9011
lhand -0.89036 -25.5845
lfingers 7.12502
lthumb 24.7373 2.83605
rfemur 0 0 0
rtibia 0
rfoot 0 0
rtoes 0
lfemur -7.34076 -10.4151 -8.95811
ltibia 22.1033
lfoot -23.7937 17.2252
ltoes -54.0268
479
root -0.906507 18.7475 5.18762 2.20614 -0.288213 -3.95205
lowerback 7.79353 1.87764 -6.68375
upperback 1.54033 1.79211 -4.77438
thorax -2.82412 0.927739 -1.39023
lowerneck -11.7556 2.26987 1.3259
upperneck 33.9856 2.92161 0.5636
head 13.4024 1.51123 0.414528
rclavicle -1.63003e-014 9.54166e-015
rhumerus 49.0457 68.8463 -5.00107
rradius 109.233
rwrist -23.4972
rhand -0.132474 -53.515
rfingers 7.12502
rthumb 25.4635 -81.8339
lclavicle -1.63003e-014 9.54166e-015
lhumerus 9.08572 -41.0117 53.4507
lradius 80.7709
lwrist 39.8248
lhand -0.867452 -25.6725
lfingers 7.12502
lthumb 24.7592 2.74503
rfemur 0 0 0
rtibia 0
rfoot 0 0
rtoes 0
lfemur -6.76956 -10.0557 -9.20365
ltibia 21.9762
lfoot -23.8719 17.4174
ltoes -54.0796
480
root -0.901247 18.7425 5.17919 2.02627 -1.19344 -3.77308
lowerback 7.97669 2.19944 -6.64132
upperback 1.60701 2.20359 -4.85703
thorax -2.8624 1.13019 -1.54957
lowerneck -11.7756 2.31013 1.39017
upperneck 33.8005 2.94539 0.605444
head 13.3269 1.53643 0.421423
rclavicle -1.31198e-014 -2.54444e-014
rhumerus 43.8383 67.2558 -13.0749
rradius 109.014
rwrist -22.9512
rhand -1.61418 -53.2661
rfingers 7.12502
rthumb 24.0434 -81.7801
lclavicle -1.31198e-014 -2.54444e-014
lhumerus 9.24994 -41.0006 53.3457
lradius 80.8692
lwrist 39.7068
lhand -0.826151 -25.7013
lfingers 7.12502
lthumb 24.7988 2.71079
rfemur 0 0 0
rtibia 0
rfoot 0 0
rtoes 0
lfemur -6.23987 -9.59053 -9.54369
ltibia 21.8525
lfoot -24.0572 17.8125
ltoes -54.1088
481
root -0.894157 18.7397 5.16533 1.86788 -2.01958 -3.58047
lowerback 8.20363 2.52306 -6.56887
upperback 1.68842 2.61714 -4.92471
thorax -2.90686 1.33343 -1.71384
lowerneck -11.9348 2.32335 1.35085
upperneck 33.8065 2.95933 0.646811
head 13.3626 1.54324 0.449496
rclavicle 3.53837e-014 -4.77083e-014
rhumerus 36.7925 64.4999 -23.0591
rradius 107.616
rwrist -21.3087
rhand -4.70569 -54.9955
rfingers 7.12502
rthumb 21.0762 -83.8701
lclavicle 3.53837e-014 -4.77083e-014
lhumerus 9.38695 -40.9306 53.4201
lradius 81.005
lwrist 39.6585
lhand -0.675149 -25.7641
lfingers 7.12502
lthumb 24.9435 2.62795
rfemur 0 0 0
rtibia 0
rfoot 0 0
rtoes 0
lfemur -5.8205 -9.17424 -9.88905
ltibia 21.7931
lfoot -24.2597 18.2153
ltoes -54.1523
482
root -0.888664 18.7403 5.15384 1.83555 -2.56341 -3.48922
lowerback 8.263 2.76562 -6.45966
upperback 1.75486 2.9458 -4.93043
thorax -2.87128 1.49379 -1.81778
lowerneck -12.0466 2.28639 1.23507
upperneck 33.8934 2.94221 0.632914
head 13.4226 1.51951 0.464926
rclavicle -4.45278e-014 3.49861e-014
rhumerus 29.3972 60.5037 -33.1761
rradius 105.552
rwrist -17.8612
rhand -5.13368 -52.6696
rfingers 7.12502
rthumb 20.665 -81.5894
lclavicle -4.45278e-014 3.49861e-014
lhumerus 9.45684 -40.8612 53.6476
lradius 81.1488
lwrist 39.7004
lhand -0.397712 -25.7393
lfingers 7.12502
lthumb 25.2094 2.61561
rfemur 0 0 0
rtibia 0
rfoot 0 0
rtoes 0
lfemur -5.63609 -8.98012 -10.0744
ltibia 21.7717
lfoot -24.4612 18.5137
ltoes -54.0853
483
root -0.886785 18.743 5.14577 1.96597 -2.72947 -3.51029
lowerback 8.26163 2.92675 -6.81577
upperback 1.65194 3.13209 -4.53999
thorax -3.02176 1.59295 -1.23989
lowerneck -11.9223 2.16713 0.707621
upperneck 34.1202 2.94582 0.550027
head 13.4847 1.444 0.526272
rclavicle -3.45885e-014 3.49861e-014
rhumerus 23.3894 56.4671 -40.6398
rradius 103.631
rwrist -16.102
rhand -8.32554 -49.5521
rfingers 7.12502
rthumb 17.5956 -78.7759
lclavicle -3.45885e-014 3.49861e-014
lhumerus 8.92361 -40.7215 54.8162
lradius 81.2234
lwrist 39.6392
lhand -0.271866 -25.6674
lfingers 7.12502
lthumb 25.3299 2.67054
rfemur 0 0 0
rtibia 0
rfoot 0 0
rtoes 0
lfemur -5.76086 -8.91093 -10.049
ltibia 21.7762
lfoot -24.4932 18.585
ltoes -53.9584
484
root -0.887538 18.7474 5.14296 2.15772 -2.49271 -3.59525
lowerback 8.07408 2.8805 -6.6592
upperback 1.61429 3.10368 -4.49628
thorax -2.95013 1.57756 -1.26828
lowerneck -11.7802 2.07725 0.467043
upperneck 34.2519 2.83286 0.696332
head 13.5033 1.38351 0.609117
rclavicle 1.31198e-014 4.29375e-014
rhumerus 18.5061 52.4977 -46.6295
rradius 102.097
rwrist -13.5689
rhand -9.12643 -50.2983
rfingers 7.12502
rthumb 16.8247 -79.5894
lclavicle 1.31198e-014 4.29375e-014
lhumerus 8.64774 -40.722 55.2234
lradius 81.3307
lwrist 39.5793
lhand -0.328434 -25.8833
lfingers 7.12502
lthumb 25.2758 2.46223
rfemur 0 0 0
rtibia 0
rfoot 0 0
rtoes 0
lfemur -6.08738 -8.86587 -9.87791
ltibia 21.8152
lfoot -24.2852 18.4005
ltoes -54.0166
485
root -0.889418 18.7513 5.14683 2.30053 -1.96359 -3.70475
lowerback 7.83477 2.78544 -6.47934
upperback 1.68295 3.02511 -4.46333
thorax -2.73565 1.53359 -1.30873
lowerneck -11.7373 1.94456 0.335454
upperneck 34.2611 2.63555 0.810624
head 13.4936 1.29685 0.648109
rclavicle -3.97569e-014 5.40694e-014
rhumerus 15.4217 49.9026 -48.7952
rradius 101.769
rwrist -13.3281
rhand -9.21889 -50.8494
rfingers 7.12502
rthumb 16.7357 -80.148
lclavicle -3.97569e-014 5.40694e-014
lhumerus 8.67446 -40.8318 55.3726
lradius 81.4315
lwrist 39.466
lhand -0.381536 -26.1272
lfingers 7.12502
lthumb 25.2249 2.22556
rfemur 0 0 0
rtibia 0
rfoot 0 0
rtoes 0
lfemur -6.44697 -8.90298 -9.65669
ltibia 21.9029
lfoot -24.0236 18.0424
ltoes -54.1672
